<svg xmlns="http://www.w3.org/2000/svg" width="90.55" height="44.19" viewBox="0 0 90.55 44.19"><path d="M11.81,40.43C7.9,35.28,2.3,27.86,6.15,21.17c.52-.9,1.72-2.55,2.93-2.51.67,0,1.41.84,1.88,1.23l2.66,2.19,11,9.06a2.54,2.54,0,0,0,3.28.2,2.51,2.51,0,0,0,.65-3.23A11.82,11.82,0,0,1,26.94,21c.2-2,1.24-4.28,2.76-5.22,2.88-1.79,7.09-.37,7.59,3l4.83-1.33c-.6-3.07,1.22-6.19,3.55-8.08,2.79-2.26,6.48-3.18,9.93-3.91a17.21,17.21,0,0,1,6-.46,11.14,11.14,0,0,1,4.74,2.1c3.22,2.28,6,5.37,8.84,8.08l11,10.45c2.33,2.21,5.88-1.32,3.53-3.54l-11-10.45c-3.35-3.18-6.61-6.79-10.52-9.31C63.9-.44,59.13-.38,54.27.65,49.92,1.57,45.6,3,42.13,5.85a13.69,13.69,0,0,0-4.84,12.94,2.53,2.53,0,0,0,3.08,1.75,2.57,2.57,0,0,0,1.75-3.08c-1-6.56-9.37-9.2-14.71-6.17-6.67,3.78-6.64,13.44-3.19,19.34l3.93-3-10-8.29c-1.69-1.39-3.34-2.85-5.09-4.16A6.24,6.24,0,0,0,7.26,14C.19,16.31-1.19,25.58.88,31.74c1.4,4.18,4,7.74,6.61,11.22a2.58,2.58,0,0,0,3.42.89,2.51,2.51,0,0,0,.9-3.42Z" fill="#c4c4c4"/></svg>